<svg width="40" height="40" viewBox="0 0 40 40" fill="none" xmlns="http://www.w3.org/2000/svg">
<circle cx="20" cy="20" r="19" stroke="#686868" stroke-width="2"/>
<path d="M28.3046 17.3061H17.2101L20.8921 13.5997C21.6751 12.8124 21.8965 11.6866 21.4699 10.6616C21.0433 9.63671 20.0883 9 18.9775 9C18.2552 9 17.5765 9.28141 17.0661 9.79286L8.78835 18.0951C7.7374 19.1455 7.7374 20.8545 8.78723 21.9037L17.0664 30.2075C17.5765 30.7185 18.2552 31 18.9775 31C20.0882 31 21.0432 30.3633 21.4699 29.3384C21.8965 28.3135 21.675 27.1877 20.8924 26.4007L17.2101 22.6939H23.8121C24.3084 22.6939 24.7106 22.2919 24.7106 21.7959C24.7106 21.3 24.3084 20.898 23.8121 20.898H15.0519C14.6891 20.898 14.3618 21.116 14.2224 21.4508C14.083 21.7855 14.1587 22.1713 14.4143 22.4286L19.6176 27.6664C20.0113 28.0623 19.865 28.5183 19.8107 28.6486C19.7564 28.7789 19.5361 29.2042 18.9774 29.2042C18.736 29.2042 18.509 29.1101 18.3389 28.9396L10.059 20.6349C9.70871 20.2848 9.70871 19.7152 10.0601 19.3639L18.3385 11.0609C18.5091 10.89 18.736 10.7959 18.9775 10.7959C19.5361 10.7959 19.7565 11.2211 19.8107 11.3515C19.865 11.4818 20.0114 11.9378 19.6173 12.3341L14.4144 17.5715C14.1588 17.8288 14.0831 18.2145 14.2225 18.5493C14.3619 18.884 14.6891 19.1021 15.052 19.1021H28.3046C28.8 19.1021 29.203 19.5049 29.203 20.0001C29.203 20.4952 28.8 20.898 28.3046 20.898C27.8083 20.898 27.4061 21.3 27.4061 21.796C27.4061 22.292 27.8083 22.694 28.3046 22.694C29.7908 22.6939 31 21.4854 31 20C31 18.5146 29.7908 17.3061 28.3046 17.3061Z" fill="#686868"/>
</svg>
