<svg width="30" height="30" viewBox="0 0 30 30" fill="none" xmlns="http://www.w3.org/2000/svg">
<path d="M22.9028 22.3424C22.9496 22.3824 23.0039 22.4127 23.0625 22.4317C23.121 22.4506 23.1828 22.4579 23.2441 22.453C23.3055 22.4481 23.3653 22.4311 23.4201 22.4031C23.4749 22.375 23.5237 22.3364 23.5636 22.2895C25.4264 20.0987 26.3787 17.277 26.2243 14.4054C26.0699 11.5337 24.8207 8.83045 22.7338 6.85186C20.6468 4.87328 17.8808 3.76991 15.005 3.7688C12.1291 3.76769 9.3623 4.86893 7.27379 6.84591C5.18528 8.82288 3.934 11.5252 3.77743 14.3967C3.62086 17.2683 4.57092 20.0906 6.4321 22.2829C8.29328 24.4753 10.924 25.8708 13.7829 26.1824C16.6418 26.494 19.5113 25.6979 21.8011 23.9579C21.8985 23.8821 21.9621 23.771 21.9781 23.6486C21.9941 23.5262 21.9612 23.4024 21.8865 23.3042C21.8118 23.2059 21.7013 23.1411 21.5791 23.1237C21.4569 23.1064 21.3328 23.138 21.2337 23.2117C19.4436 24.5787 17.252 25.3158 14.9997 25.3083C12.6504 25.3082 10.3716 24.5056 8.54078 23.0334C6.70994 21.5613 5.43691 19.5079 4.93253 17.2134C4.42814 14.9189 4.72267 12.5209 5.76732 10.4167C6.81198 8.3124 8.54409 6.62812 10.6768 5.64278C12.8094 4.65743 15.2147 4.43015 17.4942 4.99856C19.7737 5.56698 21.7906 6.897 23.211 8.76832C24.6313 10.6396 25.3698 12.94 25.3041 15.2884C25.2385 17.6368 24.3726 19.8923 22.8499 21.6813C22.81 21.7282 22.7796 21.7824 22.7607 21.841C22.7417 21.8996 22.7344 21.9614 22.7394 22.0228C22.7443 22.0842 22.7612 22.144 22.7893 22.1989C22.8173 22.2537 22.8559 22.3025 22.9028 22.3424Z" fill="#EB913F"/>
<path d="M7.20687 3.53653C7.2976 3.53687 7.38645 3.51081 7.46262 3.46153L7.616 3.36253C7.71949 3.29528 7.79228 3.18992 7.81857 3.06932C7.84486 2.94873 7.82253 2.82263 7.75641 2.71841C7.6903 2.61418 7.58575 2.54023 7.46545 2.51262C7.34516 2.485 7.21882 2.50595 7.11387 2.57091L6.95075 2.67591C6.86559 2.73091 6.80057 2.81203 6.76541 2.90712C6.73026 3.0022 6.72688 3.10611 6.75578 3.20328C6.78467 3.30045 6.84429 3.38563 6.92569 3.44605C7.00709 3.50647 7.10588 3.53888 7.20725 3.53841L7.20687 3.53653Z" fill="#EB913F"/>
<path d="M14.9998 0.281277C13.0217 0.277453 11.0633 0.674969 9.2432 1.44978C9.13173 1.50033 9.04446 1.59248 9.00003 1.70652C8.9556 1.82057 8.95754 1.94747 9.00544 2.0601C9.05333 2.17274 9.14338 2.26217 9.25634 2.30929C9.3693 2.35642 9.49621 2.35749 9.60995 2.31228C12.8192 0.944448 16.4274 0.842837 19.7085 2.02789C22.9897 3.21295 25.7002 5.59672 27.2948 8.69955C28.8894 11.8024 29.2496 15.394 28.3031 18.7517C27.3565 22.1094 25.1733 24.984 22.1929 26.7971C19.2125 28.6102 15.656 29.2272 12.239 28.524C8.82202 27.8208 5.79818 25.8495 3.77591 23.0069C1.75365 20.1642 0.883043 16.6612 1.33928 13.2025C1.79551 9.74391 3.54473 6.58642 6.23495 4.3654C6.28352 4.32658 6.32388 4.27849 6.35369 4.22393C6.38349 4.16936 6.40214 4.10941 6.40856 4.04757C6.41497 3.98572 6.40901 3.92322 6.39104 3.8637C6.37306 3.80418 6.34342 3.74883 6.30385 3.70088C6.26428 3.65292 6.21556 3.61332 6.16053 3.58437C6.10551 3.55543 6.04527 3.53772 5.98333 3.53228C5.9214 3.52683 5.859 3.53377 5.79977 3.55267C5.74054 3.57158 5.68566 3.60208 5.63833 3.6424C2.96373 5.84699 1.15293 8.92472 0.524911 12.3334C-0.103111 15.7421 0.491938 19.2631 2.20523 22.2761C3.91853 25.2892 6.64016 27.6009 9.89067 28.8041C13.1412 30.0074 16.7121 30.0249 19.9742 28.8537C23.2364 27.6824 25.9806 25.3976 27.7235 22.4015C29.4663 19.4055 30.0959 15.8905 29.5014 12.4758C28.9069 9.06109 27.1264 5.96571 24.4736 3.73495C21.8208 1.50418 18.4659 0.281142 14.9998 0.281277Z" fill="#EB913F"/>
<path d="M17.0939 12.4376C17.0939 12.5619 17.1433 12.6812 17.2312 12.7691C17.3191 12.857 17.4383 12.9064 17.5626 12.9064C17.6869 12.9064 17.8062 12.857 17.8941 12.7691C17.982 12.6812 18.0314 12.5619 18.0314 12.4376C18.0301 11.7156 17.7714 11.0178 17.3017 10.4695C16.8321 9.92116 16.1822 9.55835 15.469 9.44624V7.53149C15.469 7.40717 15.4196 7.28795 15.3317 7.20004C15.2438 7.11213 15.1246 7.06274 15.0002 7.06274C14.8759 7.06274 14.7567 7.11213 14.6688 7.20004C14.5809 7.28795 14.5315 7.40717 14.5315 7.53149V9.44624C13.8177 9.55703 13.167 9.91943 12.6971 10.468C12.2271 11.0165 11.9688 11.7151 11.9688 12.4374C11.9688 13.1598 12.2271 13.8583 12.6971 14.4069C13.167 14.9554 13.8177 15.3178 14.5315 15.4286V19.6012C14.0701 19.4949 13.6583 19.2355 13.3632 18.8653C13.0681 18.4951 12.907 18.0358 12.9063 17.5624C12.9063 17.438 12.8569 17.3188 12.769 17.2309C12.681 17.143 12.5618 17.0936 12.4375 17.0936C12.3132 17.0936 12.194 17.143 12.106 17.2309C12.0181 17.3188 11.9688 17.438 11.9688 17.5624C11.97 18.2844 12.2288 18.9823 12.6985 19.5306C13.1683 20.0789 13.8182 20.4417 14.5315 20.5537V22.4689C14.5315 22.5932 14.5809 22.7124 14.6688 22.8003C14.7567 22.8882 14.8759 22.9376 15.0002 22.9376C15.1246 22.9376 15.2438 22.8882 15.3317 22.8003C15.4196 22.7124 15.469 22.5932 15.469 22.4689V20.5537C16.1828 20.443 16.8335 20.0806 17.3034 19.532C17.7734 18.9834 18.0317 18.2849 18.0317 17.5626C18.0317 16.8402 17.7734 16.1417 17.3034 15.5931C16.8335 15.0446 16.1828 14.6822 15.469 14.5714V10.3987C15.9303 10.5051 16.342 10.7646 16.637 11.1348C16.9321 11.505 17.0931 11.9642 17.0939 12.4376ZM12.9063 12.4376C12.907 11.9642 13.0681 11.5049 13.3632 11.1347C13.6583 10.7645 14.0701 10.5051 14.5315 10.3987V14.475C14.0704 14.3687 13.6589 14.1095 13.3638 13.7396C13.0687 13.3697 12.9074 12.9108 12.9063 12.4376ZM17.0939 17.5627C17.093 18.0361 16.932 18.4952 16.6369 18.8654C16.3419 19.2355 15.9302 19.4949 15.469 19.6012V15.525C15.9301 15.6314 16.3416 15.8907 16.6366 16.2607C16.9316 16.6306 17.0928 17.0895 17.0939 17.5627Z" fill="#EB913F"/>
</svg>
