<svg width="36" height="36" viewBox="0 0 36 36" fill="none" xmlns="http://www.w3.org/2000/svg">
<path d="M19.4577 19.3589C17.8666 19.3566 16.5767 18.0686 16.5721 16.4775L16.532 2.76733C7.39556 2.81502 0.00341797 10.2353 0.00341797 19.3831C0.00341797 28.5603 7.44296 35.9998 16.6202 35.9998C25.7974 35.9998 33.2369 28.5603 33.2369 19.3831C33.2369 19.3818 33.2369 19.3803 33.2369 19.379L19.4577 19.3589Z" fill="#5B7BED"/>
<path d="M35.9947 15.5047C35.4567 7.1585 28.7577 0.489978 20.3982 0.00158943C20.3801 0.000577974 20.3621 0 20.3442 0C20.1079 0 19.8799 0.0903085 19.7072 0.253586C19.5214 0.429146 19.4158 0.673918 19.4165 0.929527L19.4619 16.4694L35.0685 16.4921C35.0689 16.4921 35.0693 16.4921 35.0698 16.4921C35.3258 16.4921 35.5705 16.3862 35.7457 16.1993C35.9213 16.0122 36.0112 15.7608 35.9947 15.5047Z" fill="#5073EE"/>
</svg>
